HIERARCHY
ROOT Hips
{
	OFFSET 0.000000 0.000000 0.000000
	CHANNELS 6 Xposition Yposition Zposition Zrotation Yrotation Xrotation 
	JOINT LowerBack
	{
		OFFSET 0.000000 0.000000 0.000000
		CHANNELS 3 Zrotation Yrotation Xrotation
		JOINT Spine
		{
			OFFSET 0.028270 2.035590 -0.193380
			CHANNELS 3 Zrotation Yrotation Xrotation
			JOINT Spine1
			{
				OFFSET 0.056720 2.048850 -0.042750
				CHANNELS 3 Zrotation Yrotation Xrotation
				JOINT Neck
				{
					OFFSET 0.000000 0.000000 0.000000
					CHANNELS 3 Zrotation Yrotation Xrotation
					JOINT Neck1
					{
						OFFSET -0.054170 1.746240 0.172020
						CHANNELS 3 Zrotation Yrotation Xrotation
						JOINT Head
						{
							OFFSET 0.104070 1.761360 -0.123970
							CHANNELS 3 Zrotation Yrotation Xrotation
							End Site
							{
								OFFSET 0.000000 0.000000 0.000000
							}
						}
					}
				}
				JOINT LeftShoulder
				{
					OFFSET 0.000000 0.000000 0.000000
					CHANNELS 3 Zrotation Yrotation Xrotation
					JOINT LeftArm
					{
						OFFSET 3.362410 1.200890 -0.311210
						CHANNELS 3 Zrotation Yrotation Xrotation
						JOINT LeftForeArm
						{
							OFFSET 4.983000 -0.000000 -0.000000
							CHANNELS 3 Zrotation Yrotation Xrotation
							JOINT LeftHand
							{
								OFFSET 3.483560 -0.000000 -0.000000
								CHANNELS 3 Zrotation Yrotation Xrotation
								JOINT LeftFingerBase
								{
									OFFSET 0.000000 0.000000 0.000000
									CHANNELS 3 Zrotation Yrotation Xrotation
									JOINT LeftHandIndex1
									{
										OFFSET 0.715260 -0.000000 -0.000000
										CHANNELS 3 Zrotation Yrotation Xrotation
										End Site
										{
											OFFSET 0.000000 0.000000 0.000000
										}
									}
								}
								JOINT LThumb
								{
									OFFSET 0.000000 0.000000 0.000000
									CHANNELS 3 Zrotation Yrotation Xrotation
									End Site
									{
										OFFSET 0.000000 0.000000 0.000000
									}
								}
							}
						}
					}
				}
				JOINT RightShoulder
				{
					OFFSET 0.000000 0.000000 0.000000
					CHANNELS 3 Zrotation Yrotation Xrotation
					JOINT RightArm
					{
						OFFSET -3.136600 1.374050 -0.404650
						CHANNELS 3 Zrotation Yrotation Xrotation
						JOINT RightForeArm
						{
							OFFSET -5.241900 -0.000000 -0.000000
							CHANNELS 3 Zrotation Yrotation Xrotation
							JOINT RightHand
							{
								OFFSET -3.444170 -0.000000 -0.000000
								CHANNELS 3 Zrotation Yrotation Xrotation
								JOINT RightFingerBase
								{
									OFFSET 0.000000 0.000000 0.000000
									CHANNELS 3 Zrotation Yrotation Xrotation
									JOINT RightHandIndex1
									{
										OFFSET -0.622530 -0.000000 -0.000000
										CHANNELS 3 Zrotation Yrotation Xrotation
										End Site
										{
											OFFSET 0.000000 0.000000 0.000000
										}
									}
								}
								JOINT RThumb
								{
									OFFSET 0.000000 0.000000 0.000000
									CHANNELS 3 Zrotation Yrotation Xrotation
									End Site
									{
										OFFSET 0.000000 0.000000 0.000000
									}
								}
							}
						}
					}
				}
			}
		}
	}
}
}
MOTION
Frames: 11
Frame Time: 0.008333
3.060174 16.393549 0.263686 3.775268 44.274898 17.149541 -6.628516 0.834501 -0.722312 -1.948136 1.217847 -3.032980 -5.210029 1.116907 0.735339 13.178907 -4.532903 -4.192742 -1.770125 -0.180327 0.846979 0.000000 0.000000 0.000000 -8.020313 12.183013 2.260582 -75.232808 26.939201 21.443047 -3.515365 -29.198664 -0.026776 -13.366628 6.719185 -0.805332 0.027278 -0.123514 0.000000 0.000000 0.000000 0.000000 0.000000 0.000000 0.000000 10.479172 0.912137 0.037657 65.187915 34.444351 38.036377 0.959582 74.733587 0.039851 8.614590 4.575525 0.372315 -0.088182 -0.309955 -0.000000 0.000000 0.000000 0.000000 0.000000 0.000000 0.000000 
3.203364 16.398839 0.299597 4.044512 42.864365 17.171583 -6.722631 0.763283 -0.369616 -1.970611 1.158483 -2.996814 -5.242015 1.058985 0.634625 13.136409 -4.400489 -4.132897 -1.833383 -0.185229 0.856420 0.000000 0.000000 0.000000 -8.222632 11.759392 2.281603 -74.471601 25.348604 21.707525 -3.527753 -28.941759 -0.025386 -13.119198 6.629448 -0.778775 0.021321 -0.116856 0.000000 0.000000 0.000000 0.000000 0.000000 0.000000 0.000000 10.674133 1.039393 0.046664 65.998938 33.482554 38.135467 1.037669 73.434457 0.039157 8.597396 4.467440 0.362646 -0.084645 -0.302501 -0.000000 0.000000 0.000000 0.000000 0.000000 0.000000 0.000000 
3.342691 16.412831 0.332452 4.243862 41.483216 17.119126 -6.726365 0.695451 0.025820 -1.973811 1.097034 -2.950379 -5.267698 0.999698 0.536848 13.067446 -4.279596 -4.073165 -1.897213 -0.190063 0.865242 0.000000 0.000000 0.000000 -8.435276 11.296681 2.306595 -73.637540 23.625708 21.827716 -3.556277 -28.490025 -0.024024 -12.792030 6.539424 -0.747806 0.013497 -0.109965 0.000000 0.000000 0.000000 0.000000 0.000000 0.000000 0.000000 10.841008 1.137803 0.051026 66.805745 32.459535 38.112951 1.119176 72.007069 0.038306 8.576755 4.368523 0.353573 -0.081258 -0.294384 0.000000 0.000000 0.000000 0.000000 0.000000 0.000000 0.000000 
3.479423 16.434691 0.362762 4.375380 40.135343 16.994815 -6.639046 0.633196 0.453748 -1.957802 1.035502 -2.894945 -5.287318 0.940965 0.445500 12.977161 -4.173399 -4.015984 -1.961254 -0.194774 0.872969 0.000000 0.000000 0.000000 -8.643724 10.799276 2.334316 -72.745712 21.801208 21.793220 -3.601206 -27.844559 -0.022741 -12.393839 6.460560 -0.714428 0.003988 -0.103000 0.000000 0.000000 0.000000 0.000000 0.000000 0.000000 0.000000 10.985169 1.201378 0.054189 67.576462 31.382366 37.959834 1.202587 70.472312 0.037328 8.558559 4.284779 0.345695 -0.078124 -0.285697 0.000000 0.000000 0.000000 0.000000 0.000000 0.000000 0.000000 
3.614719 16.463272 0.391349 4.440137 38.823622 16.803199 -6.462622 0.577906 0.900893 -1.923232 0.975318 -2.832549 -5.301597 0.884086 0.363461 12.871786 -4.085110 -3.962729 -2.024973 -0.199316 0.879466 0.000000 0.000000 0.000000 -8.830607 10.270149 2.363057 -71.812181 19.913841 21.593513 -3.662231 -27.019704 -0.021597 -11.940444 6.402926 -0.680646 -0.006930 -0.096101 0.000000 0.000000 0.000000 0.000000 0.000000 0.000000 0.000000 11.112025 1.224740 0.059420 68.285673 30.260338 37.675766 1.286909 68.849557 0.036247 8.547298 4.219362 0.339513 -0.075252 -0.276489 0.000000 0.000000 0.000000 0.000000 0.000000 0.000000 0.000000 
3.749276 16.497171 0.419490 4.445913 37.550189 16.553737 -6.208052 0.528243 1.354678 -1.872425 0.915839 -2.763640 -5.311059 0.828331 0.299573 12.760619 -4.018577 -3.920031 -2.087551 -0.203540 0.883001 0.000000 0.000000 0.000000 -8.967029 9.751039 2.391822 -70.847111 17.959882 21.274610 -3.738191 -26.019680 -0.020621 -11.453654 6.369542 -0.647861 -0.018969 -0.089251 0.000000 0.000000 0.000000 0.000000 0.000000 0.000000 0.000000 11.229919 1.204360 0.066055 68.916700 29.108060 37.264623 1.371374 67.158361 0.035091 8.549031 4.173848 0.335325 -0.072681 -0.266783 0.000000 0.000000 0.000000 0.000000 0.000000 0.000000 0.000000 
3.883549 16.535026 0.448559 4.399886 36.316576 16.260019 -5.885813 0.483788 1.796737 -1.807945 0.857233 -2.693649 -5.318461 0.773574 0.246544 12.649737 -3.973215 -3.879593 -2.148823 -0.207598 0.886278 0.000000 0.000000 0.000000 -9.047197 9.198860 2.417490 -69.862892 16.039743 20.771971 -3.828262 -24.916184 -0.019891 -10.961661 6.371489 -0.618580 -0.031725 -0.082675 0.000000 0.000000 0.000000 0.000000 0.000000 0.000000 0.000000 11.343759 1.138235 0.079129 69.461397 27.927064 36.736876 1.456327 65.407778 0.033864 8.559890 4.145708 0.332834 -0.070181 -0.256604 0.000000 0.000000 0.000000 0.000000 0.000000 0.000000 0.000000 
4.017518 16.575493 0.480051 4.316010 35.121454 15.941524 -5.516311 0.439728 2.212411 -1.733929 0.795920 -2.622431 -5.324678 0.716168 0.216614 12.549715 -3.951667 -3.851488 -2.207849 -0.211281 0.886510 0.000000 0.000000 0.000000 -9.044351 8.685734 2.439274 -68.855166 14.116198 20.184239 -3.930147 -23.723398 -0.019406 -10.493006 6.400412 -0.593204 -0.044941 -0.076229 0.000000 0.000000 0.000000 0.000000 0.000000 0.000000 0.000000 11.463740 1.026468 0.093768 69.918862 26.736912 36.103542 1.541653 63.609797 0.032585 8.583675 4.131576 0.331739 -0.067753 -0.245920 0.000000 0.000000 0.000000 0.000000 0.000000 0.000000 0.000000 
4.150791 16.617387 0.515399 4.208431 33.963683 15.620410 -5.118636 0.393534 2.582441 -1.654660 0.730318 -2.556168 -5.333096 0.654211 0.199437 12.466129 -3.951288 -3.824961 -2.264755 -0.214809 0.887070 0.000000 0.000000 0.000000 -8.958783 8.159118 2.454790 -67.824416 12.299126 19.450837 -4.042177 -22.538630 -0.019225 -10.077353 6.460658 -0.573436 -0.058281 -0.070164 0.000000 0.000000 0.000000 0.000000 0.000000 0.000000 0.000000 11.595409 0.870413 0.113980 70.296108 25.538359 35.378043 1.628251 61.762731 0.031240 8.609012 4.126778 0.331444 -0.065073 -0.234803 0.000000 0.000000 0.000000 0.000000 0.000000 0.000000 0.000000 
4.282735 16.659814 0.555768 4.092801 32.839733 15.318497 -4.714889 0.339521 2.895036 -1.574588 0.655887 -2.495115 -5.345305 0.583148 0.202852 12.406936 -3.969686 -3.807022 -2.318926 -0.218045 0.885980 0.000000 0.000000 0.000000 -8.780853 7.677703 2.463991 -66.753419 10.561112 18.670675 -4.161819 -21.401660 -0.019338 -9.740858 6.539772 -0.559476 -0.071600 -0.064432 0.000000 0.000000 0.000000 0.000000 0.000000 0.000000 0.000000 11.746869 0.675888 0.134382 70.602810 24.346839 34.565598 1.716110 59.870473 0.029837 8.636003 4.125713 0.331346 -0.062139 -0.223251 -0.000000 0.000000 0.000000 0.000000 0.000000 0.000000 0.000000 
4.412516 16.702081 0.601973 3.983107 31.747098 15.054532 -4.324393 0.272935 3.141199 -1.497681 0.568782 -2.441314 -5.363688 0.499085 0.225163 12.376419 -3.999484 -3.796380 -2.370153 -0.221015 0.883659 0.000000 0.000000 0.000000 -8.515942 7.251104 2.467323 -65.625072 8.928385 17.885922 -4.286846 -20.380868 -0.019747 -9.505294 6.629408 -0.552026 -0.084769 -0.059179 0.000000 0.000000 0.000000 0.000000 0.000000 0.000000 0.000000 11.921881 0.452519 0.152902 70.852266 23.166856 33.663953 1.805220 57.932847 0.028381 8.660807 4.122324 0.331048 -0.058896 -0.211320 -0.000000 0.000000 0.000000 0.000000 0.000000 0.000000 0.000000 
